<?xml version="1.0" encoding="utf-8"?>
<!-- Generator: Adobe Illustrator 25.4.1, SVG Export Plug-In . SVG Version: 6.00 Build 0)  -->
<svg version="1.1" id="Layer_1" xmlns="http://www.w3.org/2000/svg" xmlns:xlink="http://www.w3.org/1999/xlink" x="0px" y="0px"
	 viewBox="0 0 200 200" style="enable-background:new 0 0 200 200;" xml:space="preserve">
<style type="text/css">
	.st0{fill-rule:evenodd;clip-rule:evenodd;fill:#FFFFFF;}
</style>
<g>
	<rect x="15.9" y="15.9" width="167.4" height="167.4"/>
	<path class="st0" d="M93.3,156.6c5.8,3.9,15.2,6.3,24.3,6.3c17,0,29.8-7.3,29.8-23.8c0-14.1-7.8-20.9-25.9-24.9
		c-9.2-2.4-12.6-5.2-12.6-10.2c0-5,4.2-8.9,11.8-8.9c8.4,0,15.2,2.9,22,7.8v-16c-6.5-3.9-13.6-5.8-22.5-5.8
		c-16,0-28.3,7.8-28.3,23.8c0,13.6,7.1,20.1,23.3,23.8c10.2,2.6,14.9,5,14.9,11.2c0,6.3-5.2,8.9-13.1,8.9c-8.1,0-16.7-3.4-24.1-8.9
		L93.3,156.6z M89.7,97.8h-8.1v63.6H64V97.8H51.7V83.1H64V68.2c0-19.4,10.7-28.8,27.5-28.8c6.3,0,11,1.3,15.4,3.9v16
		c-4.2-2.9-8.1-4.4-13.6-4.4c-7.6,0-11.8,3.7-11.8,13.3v14.9h19.1C94.9,86,91,91.2,89.7,97.8z"/>
</g>
</svg>
